<svg id="Layer_1" data-name="Layer 1" xmlns="http://www.w3.org/2000/svg" viewBox="0 0 264 264"><path d="M146,161.05l-20.89-12.5,14.85-9.78,7.56,7.35-.94,14.59ZM127.3,148.51l18.14,10.84.82-12.76-6.49-6.31Z"/><path d="M129.83,96.06l-.47.25-5.45,12.35a12.11,12.11,0,0,1,.93.82l5.28-11.94,15.79,8.19-13.5,30.92-5,2.08-3-8.43a10.58,10.58,0,0,1-1,.79l3.24,9.23,6.58-2.76,14.14-32.37Z"/><path d="M161.4,97.14,143.76,88l-14.4,8.31-.3.69,16.85,8.73-9.68,21.9c-1.14,2.52-2.07,4.63-2.77,6.32V113.07L116,104l-13.4,7.73V167L120.06,176l13.4-7.73V149.91l3.12-4,9,14.84.42.26,15.25-8.81-14.79-21.89Zm-30.33-.44,12.72-7.35,15.6,8.08-6.87,4-5.86,3.38Zm-11.61,77.65-15.67-8.12V113.08l15.67,8.11Zm-15-62.28L116,105.38l15.6,8.08-11.6,6.7Z"/><rect width="8" height="56"/><rect y="80" width="8" height="8"/><rect y="104" width="8" height="16"/><rect y="136" width="8" height="8"/><rect y="152" width="8" height="8"/><rect y="176" width="8" height="16"/><rect y="208" width="8" height="56"/><rect x="8" width="8" height="8"/><rect x="8" y="48" width="8" height="8"/><rect x="8" y="64" width="8" height="24"/><rect x="8" y="120" width="8" height="16"/><rect x="8" y="160" width="8" height="8"/><rect x="8" y="176" width="8" height="16"/><rect x="8" y="208" width="8" height="8"/><rect x="8" y="256" width="8" height="8"/><rect x="16" width="8" height="8"/><rect x="16" y="16" width="8" height="24"/><rect x="16" y="48" width="8" height="8"/><rect x="16" y="80" width="8" height="8"/><rect x="16" y="112" width="8" height="32"/><rect x="16" y="160" width="8" height="8"/><rect x="16" y="176" width="8" height="16"/><rect x="16" y="208" width="8" height="8"/><rect x="16" y="224" width="8" height="24"/><rect x="16" y="256" width="8" height="8"/><rect x="24" width="8" height="8"/><rect x="24" y="16" width="8" height="24"/><rect x="24" y="48" width="8" height="8"/><rect x="24" y="80" width="8" height="8"/><rect x="24" y="120" width="8" height="8"/><rect x="24" y="136" width="8" height="8"/><rect x="24" y="152" width="8" height="8"/><rect x="24" y="176" width="8" height="24"/><rect x="24" y="208" width="8" height="8"/><rect x="24" y="224" width="8" height="24"/><rect x="24" y="256" width="8" height="8"/><rect x="32" width="8" height="8"/><rect x="32" y="16" width="8" height="24"/><rect x="32" y="48" width="8" height="8"/><rect x="32" y="64" width="8" height="16"/><rect x="32" y="88" width="8" height="24"/><rect x="32" y="120" width="8" height="16"/><rect x="32" y="144" width="8" height="16"/><rect x="32" y="176" width="8" height="16"/><rect x="32" y="208" width="8" height="8"/><rect x="32" y="224" width="8" height="24"/><rect x="32" y="256" width="8" height="8"/><rect x="40" width="8" height="8"/><rect x="40" y="48" width="8" height="8"/><rect x="40" y="88" width="8" height="8"/><rect x="40" y="104" width="8" height="8"/><rect x="40" y="120" width="8" height="8"/><rect x="40" y="152" width="8" height="16"/><rect x="40" y="208" width="8" height="8"/><rect x="40" y="256" width="8" height="8"/><rect x="48" width="8" height="56"/><rect x="48" y="64" width="8" height="8"/><rect x="48" y="80" width="8" height="8"/><rect x="48" y="96" width="8" height="8"/><rect x="48" y="112" width="8" height="8"/><rect x="48" y="128" width="8" height="8"/><rect x="48" y="144" width="8" height="8"/><rect x="48" y="160" width="8" height="8"/><rect x="48" y="176" width="8" height="8"/><rect x="48" y="192" width="8" height="8"/><rect x="48" y="208" width="8" height="56"/><rect x="56" y="72" width="8" height="56"/><rect x="56" y="136" width="8" height="32"/><rect x="56" y="176" width="8" height="8"/><rect x="64" y="16" width="8" height="8"/><rect x="64" y="32" width="8" height="24"/><rect x="64" y="64" width="8" height="24"/><rect x="64" y="104" width="8" height="8"/><rect x="64" y="120" width="8" height="8"/><rect x="64" y="144" width="8" height="48"/><rect x="64" y="200" width="8" height="8"/><rect x="64" y="224" width="8" height="8"/><rect x="64" y="248" width="8" height="8"/><rect x="72" y="16" width="8" height="32"/><rect x="72" y="56" width="8" height="8"/><rect x="72" y="80" width="8" height="8"/><rect x="72" y="96" width="8" height="16"/><rect x="72" y="120" width="8" height="8"/><rect x="72" y="136" width="8" height="8"/><rect x="72" y="152" width="8" height="8"/><rect x="72" y="168" width="8" height="40"/><rect x="72" y="216" width="8" height="32"/><rect x="72" y="256" width="8" height="8"/><rect x="80" y="8" width="8" height="32"/><rect x="80" y="48" width="8" height="48"/><rect x="80" y="104" width="8" height="8"/><rect x="80" y="120" width="8" height="8"/><rect x="80" y="144" width="8" height="8"/><rect x="80" y="168" width="8" height="16"/><rect x="80" y="192" width="8" height="8"/><rect x="80" y="216" width="8" height="8"/><rect x="80" y="232" width="8" height="8"/><rect x="80" y="248" width="8" height="16"/><rect x="88" y="8" width="8" height="8"/><rect x="88" y="24" width="8" height="8"/><rect x="88" y="64" width="8" height="48"/><rect x="88" y="128" width="8" height="16"/><rect x="88" y="160" width="8" height="16"/><rect x="88" y="192" width="8" height="16"/><rect x="88" y="232" width="8" height="32"/><rect x="96" width="8" height="8"/><rect x="96" y="40" width="8" height="16"/><rect x="96" y="64" width="8" height="8"/><rect x="96" y="208" width="8" height="16"/><rect x="96" y="232" width="8" height="8"/><rect x="104" y="16" width="8" height="16"/><rect x="104" y="64" width="8" height="38.47"/><rect x="104" y="192" width="8" height="8"/><rect x="104" y="248" width="8" height="16"/><rect x="112" width="8" height="8"/><rect x="112" y="16" width="8" height="16"/><rect x="112" y="48" width="8" height="24"/><rect x="112" y="184" width="8" height="16"/><rect x="112" y="224" width="8" height="8"/><rect x="112" y="240" width="8" height="16"/><rect x="120" y="8" width="8" height="16"/><rect x="120" y="40" width="8" height="8"/><rect x="120" y="56" width="8" height="8"/><rect x="120" y="72" width="8" height="8"/><rect x="120" y="184" width="8" height="8"/><rect x="120" y="224" width="8" height="8"/><rect x="120" y="240" width="8" height="16"/><rect x="128" y="8" width="8" height="24"/><rect x="128" y="40" width="8" height="32"/><rect x="128" y="184" width="8" height="8"/><rect x="128" y="224" width="8" height="8"/><rect x="128" y="240" width="8" height="24"/><rect x="136" width="8" height="16"/><rect x="136" y="24" width="8" height="8"/><rect x="136" y="56" width="8" height="16"/><rect x="136" y="192" width="8" height="8"/><rect x="136" y="208" width="8" height="8"/><rect x="136" y="224" width="8" height="32"/><rect x="144" width="8" height="8"/><rect x="144" y="24" width="8" height="16"/><rect x="144" y="48" width="8" height="16"/><rect x="144" y="72" width="8" height="8"/><rect x="144" y="168" width="8" height="8"/><rect x="144" y="184" width="8" height="8"/><rect x="144" y="200" width="8" height="16"/><rect x="144" y="232" width="8" height="8"/><rect x="144" y="256" width="8" height="8"/><rect x="152" y="8" width="8" height="40"/><rect x="152" y="64" width="8" height="8"/><rect x="152" y="168" width="8" height="8"/><rect x="152" y="192" width="8" height="8"/><rect x="152" y="216" width="8" height="8"/><rect x="152" y="232" width="8" height="24"/><rect x="160" y="24" width="8" height="16"/><rect x="160" y="48" width="8" height="8"/><rect x="160" y="64" width="8" height="8"/><rect x="160" y="80" width="8" height="8"/><rect x="160" y="120" width="8" height="16"/><rect x="160" y="168" width="8" height="16"/><rect x="160" y="208" width="8" height="8"/><rect x="160" y="224" width="8" height="8"/><rect x="160" y="248" width="8" height="16"/><rect x="168" y="16" width="8" height="8"/><rect x="168" y="40" width="8" height="8"/><rect x="168" y="56" width="8" height="16"/><rect x="168" y="80" width="8" height="24"/><rect x="168" y="120" width="8" height="16"/><rect x="168" y="144" width="8" height="24"/><rect x="168" y="176" width="8" height="32"/><rect x="168" y="216" width="8" height="8"/><rect x="168" y="240" width="8" height="24"/><rect x="176" width="8" height="16"/><rect x="176" y="48" width="8" height="32"/><rect x="176" y="88" width="8" height="16"/><rect x="176" y="112" width="8" height="8"/><rect x="176" y="128" width="8" height="16"/><rect x="176" y="160" width="8" height="8"/><rect x="176" y="176" width="8" height="24"/><rect x="176" y="216" width="8" height="8"/><rect x="176" y="256" width="8" height="8"/><rect x="184" width="8" height="8"/><rect x="184" y="16" width="8" height="24"/><rect x="184" y="72" width="8" height="24"/><rect x="184" y="104" width="8" height="16"/><rect x="184" y="136" width="8" height="56"/><rect x="184" y="232" width="8" height="8"/><rect x="184" y="256" width="8" height="8"/><rect x="192" y="16" width="8" height="16"/><rect x="192" y="40" width="8" height="16"/><rect x="192" y="88" width="8" height="16"/><rect x="192" y="112" width="8" height="8"/><rect x="192" y="152" width="8" height="24"/><rect x="192" y="184" width="8" height="56"/><rect x="192" y="248" width="8" height="16"/><rect x="200" y="64" width="8" height="32"/><rect x="200" y="104" width="8" height="24"/><rect x="200" y="136" width="8" height="8"/><rect x="200" y="168" width="8" height="8"/><rect x="200" y="184" width="8" height="16"/><rect x="200" y="224" width="8" height="8"/><rect x="200" y="240" width="8" height="16"/><rect x="208" width="8" height="56"/><rect x="208" y="96" width="8" height="8"/><rect x="208" y="112" width="8" height="24"/><rect x="208" y="152" width="8" height="16"/><rect x="208" y="176" width="8" height="24"/><rect x="208" y="208" width="8" height="8"/><rect x="208" y="224" width="8" height="32"/><rect x="216" width="8" height="8"/><rect x="216" y="48" width="8" height="8"/><rect x="216" y="64" width="8" height="8"/><rect x="216" y="104" width="8" height="8"/><rect x="216" y="144" width="8" height="16"/><rect x="216" y="168" width="8" height="16"/><rect x="216" y="192" width="8" height="8"/><rect x="216" y="224" width="8" height="24"/><rect x="224" width="8" height="8"/><rect x="224" y="16" width="8" height="24"/><rect x="224" y="48" width="8" height="8"/><rect x="224" y="64" width="8" height="8"/><rect x="224" y="96" width="8" height="8"/><rect x="224" y="120" width="8" height="16"/><rect x="224" y="160" width="8" height="8"/><rect x="224" y="192" width="8" height="56"/><rect x="232" width="8" height="8"/><rect x="232" y="16" width="8" height="24"/><rect x="232" y="48" width="8" height="8"/><rect x="232" y="72" width="8" height="16"/><rect x="232" y="96" width="8" height="16"/><rect x="232" y="120" width="8" height="8"/><rect x="232" y="136" width="8" height="16"/><rect x="232" y="160" width="8" height="16"/><rect x="232" y="208" width="8" height="8"/><rect x="232" y="224" width="8" height="8"/><rect x="240" width="8" height="8"/><rect x="240" y="16" width="8" height="24"/><rect x="240" y="48" width="8" height="8"/><rect x="240" y="64" width="8" height="16"/><rect x="240" y="104" width="8" height="8"/><rect x="240" y="136" width="8" height="8"/><rect x="240" y="176" width="8" height="8"/><rect x="240" y="200" width="8" height="8"/><rect x="240" y="232" width="8" height="8"/><rect x="248" width="8" height="8"/><rect x="248" y="48" width="8" height="8"/><rect x="248" y="72" width="8" height="16"/><rect x="248" y="112" width="8" height="8"/><rect x="248" y="128" width="8" height="24"/><rect x="248" y="168" width="8" height="16"/><rect x="248" y="192" width="8" height="16"/><rect x="248" y="232" width="8" height="8"/><rect x="256" width="8" height="56"/><rect x="256" y="96" width="8" height="8"/><rect x="256" y="152" width="8" height="8"/><rect x="256" y="256" width="8" height="8"/></svg>